<svg width="512" height="512" viewBox="0 0 512 512" fill="none" xmlns="http://www.w3.org/2000/svg">
    <defs>
        <linearGradient id="premiumGradient" x1="0%" y1="0%" x2="100%" y2="100%">
            <stop offset="0%" style="stop-color:#4F46E5;stop-opacity:1" />
            <stop offset="100%" style="stop-color:#9333EA;stop-opacity:1" />
        </linearGradient>
        <filter id="subtleGlow" x="-20%" y="-20%" width="140%" height="140%">
            <feGaussianBlur stdDeviation="10" result="blur" />
            <feComposite in="SourceGraphic" in2="blur" operator="over" />
        </filter>
    </defs>
    <!-- Modern Stylized 'F' -->
    <path d="M160 80C160 57.9086 177.909 40 200 40H380C402.091 40 420 57.9086 420 80V140C420 162.091 402.091 180 380 180H280V240H360C382.091 240 400 257.909 400 280V340C400 362.091 382.091 380 360 380H280V440C280 462.091 262.091 480 240 480H200C177.909 480 160 462.091 160 440V80Z" 
          fill="url(#premiumGradient)" 
          filter="url(#subtleGlow)" />
</svg>
